<?xml version="1.0" encoding="UTF-8"?>
<svg width="80px" height="80px" viewBox="0 0 80 80" version="1.1" xmlns="http://www.w3.org/2000/svg" xmlns:xlink="http://www.w3.org/1999/xlink">
    <!-- Generator: Sketch 39.1 (31720) - http://www.bohemiancoding.com/sketch -->
    <title>icon_delete</title>
    <desc>Created with Sketch.</desc>
    <defs>
        <rect id="path-1" x="0" y="0" width="80" height="80" rx="6"></rect>
        <mask id="mask-2" maskContentUnits="userSpaceOnUse" maskUnits="objectBoundingBox" x="0" y="0" width="80" height="80" fill="white">
            <use xlink:href="#path-1"></use>
        </mask>
        <rect id="path-3" x="0" y="19" width="48" height="48" rx="5"></rect>
        <mask id="mask-4" maskContentUnits="userSpaceOnUse" maskUnits="objectBoundingBox" x="0" y="0" width="48" height="48" fill="white">
            <use xlink:href="#path-3"></use>
        </mask>
        <path d="M34,4 C34,1.79535615 32.2094838,0 30.00077,0 L17.99923,0 C15.7924676,0 14,1.790861 14,4 L5.0010033,4 C2.23479023,4 0,6.23955507 0,9.00218626 L0,10.9978137 C0,13.7710151 2.23902544,16 5.0010033,16 L42.9989967,16 C45.7652098,16 48,13.7604449 48,10.9978137 L48,9.00218626 C48,6.22898489 45.7609746,4 42.9989967,4 L34,4 Z" id="path-5"></path>
        <mask id="mask-6" maskContentUnits="userSpaceOnUse" maskUnits="objectBoundingBox" x="0" y="0" width="48" height="16" fill="white">
            <use xlink:href="#path-5"></use>
        </mask>
    </defs>
    <g id="Page-1" stroke="none" stroke-width="1" fill="none" fill-rule="evenodd">
        <g id="Artboard" transform="translate(-53.000000, -341.000000)">
            <g id="Group" transform="translate(53.000000, 341.000000)">
                <use id="Rectangle-4" stroke="#979797" mask="url(#mask-2)" stroke-width="2" xlink:href="#path-1"></use>
                <g id="Group-3" transform="translate(16.000000, 7.000000)">
                    <use id="Rectangle-5" stroke="#979797" mask="url(#mask-4)" stroke-width="6" xlink:href="#path-3"></use>
                    <rect id="Rectangle-6" fill="#9B9B9B" x="23" y="27" width="3" height="33" rx="1.5"></rect>
                    <rect id="Rectangle-6" fill="#9B9B9B" x="16" y="27" width="3" height="33" rx="1.5"></rect>
                    <rect id="Rectangle-6" fill="#9B9B9B" x="9" y="27" width="3" height="33" rx="1.5"></rect>
                    <rect id="Rectangle-6" fill="#9B9B9B" x="37" y="27" width="3" height="33" rx="1.5"></rect>
                    <rect id="Rectangle-6" fill="#9B9B9B" x="30" y="27" width="3" height="33" rx="1.5"></rect>
                    <use id="Combined-Shape" stroke="#979797" mask="url(#mask-6)" stroke-width="6" xlink:href="#path-5"></use>
                </g>
            </g>
        </g>
    </g>
</svg>